<?xml version="1.0" encoding="utf-8"?>
<!-- Generator: Adobe Illustrator 23.0.1, SVG Export Plug-In . SVG Version: 6.00 Build 0)  -->
<svg version="1.1" id="Layer_1" xmlns="http://www.w3.org/2000/svg" xmlns:xlink="http://www.w3.org/1999/xlink" x="0px" y="0px"
	 viewBox="0 0 1920 1080" style="enable-background:new 0 0 1920 1080;" xml:space="preserve">
<style type="text/css">
	.st0{fill:#027BCE;}
	.st1{opacity:0.77;}
	.st2{fill:#1B3C54;}
	.st3{fill:#26547C;}
	.st4{fill:#202020;}
</style>
<path class="st0" d="M1919.5,593.3c-137.1,0-137.1-153.6-274.3-153.6c-137.1,0-137.1,153.6-274.3,153.6
	c-137.1,0-137.1-153.6-274.3-153.6c-137.1,0-137.1,153.6-274.3,153.6c-137.1,0-137.1-153.6-274.3-153.6
	c-137.1,0-137.1,153.6-274.3,153.6S136.6,439.7-0.5,439.7v662.8h1921L1919.5,593.3z"/>
<g class="st1">
	<g>
		<path class="st2" d="M-16.7,463c139.6,0,139.6,153.6,279.2,153.6S402.1,463,541.7,463c139.6,0,139.6,153.6,279.2,153.6
			c139.6,0,139.6-153.6,279.2-153.6c139.6,0,139.6,153.6,279.2,153.6C1519,616.6,1519,463,1658.6,463
			c139.6,0,139.6,153.6,279.2,153.6V-46.2H-17.7L-16.7,463z"/>
	</g>
</g>
<g>
</g>
<g>
	<path class="st3" d="M-16.7,447.7c139.6,0,139.6,153.6,279.2,153.6s139.6-153.6,279.2-153.6c139.6,0,139.6,153.6,279.2,153.6
		c139.6,0,139.6-153.6,279.2-153.6c139.6,0,139.6,153.6,279.2,153.6c139.6,0,139.6-153.6,279.2-153.6
		c139.6,0,139.6,153.6,279.2,153.6V-61.5H-17.7L-16.7,447.7z"/>
	<g>
		<g>
			<path class="st4" d="M-16.7,447.7c2.5,0.7,4.8,1.2,7,1.8c2.2,0.6,4.3,1.1,6.5,1.6c1.1,0.3,2.2,0.5,3.3,0.7
				c1.1,0.2,2.3,0.4,3.5,0.7c1.2,0.2,2.4,0.5,3.7,0.7c1.3,0.3,2.7,0.5,4.1,0.8c1.6,0.2,3.9,0.8,6.8,1.3c1.4,0.3,3,0.7,4.7,1.1l0.2,0
				l0.3,0.1c0.3,0.1,0.6,0.1,0.8,0.2l1.7,0.5c1.1,0.3,2.2,0.6,3.3,1c4.4,1.4,8.8,3,13,4.8c8.5,3.7,16.8,8.3,24.6,13.7
				c15.7,10.8,29.6,24.5,43.1,39.1c13.5,14.6,26.8,30.1,42.1,44.3c3.8,3.5,7.8,7,11.9,10.3c4.1,3.3,8.3,6.5,12.8,9.4
				c4.4,3,9,5.7,13.8,8.3c4.8,2.5,9.7,4.8,14.7,6.8c5,2,10.2,3.6,15.5,5.1c5.3,1.3,10.6,2.5,16,3.3c10.8,1.7,21.7,2.1,32.7,1.8
				c5.5-0.3,11-0.6,16.5-1.4c1.4-0.2,2.7-0.4,4.1-0.6l4.1-0.7c2.7-0.6,5.5-1.1,8.2-1.8c2.7-0.6,5.4-1.4,8.1-2.2
				c2.7-0.9,5.3-1.7,7.9-2.7c5.3-2,10.4-4.2,15.4-6.8c5-2.6,9.9-5.4,14.6-8.6c4.7-3.1,9.2-6.5,13.6-10c8.8-7.1,16.9-14.9,24.7-23
				c15.6-16.2,30-33.4,46.1-49c8-7.8,16.5-15,25.6-21.4c9.1-6.4,19-11.7,29.3-15.8c20.8-8.1,43.6-10.7,66.3-9.3
				c5.6,0.4,11.3,1,16.9,2c5.6,1,11.1,2.3,16.5,4c10.8,3.4,21.2,8,31,14c9.7,5.9,18.8,13,27.4,20.8c8.6,7.8,16.6,16.2,24.6,24.9
				c15.9,17.3,31.5,35.5,50.1,51c9.3,7.7,19.4,14.7,30.3,20.3c10.9,5.6,22.5,9.8,34.5,12.4c6,1.3,12,2.2,18.1,2.9
				c6.1,0.6,12.2,0.8,18.3,0.9c6.1-0.1,12.2-0.3,18.3-0.9c6.1-0.7,12.2-1.6,18.2-2.9c12-2.8,23.7-6.9,34.6-12.7
				c10.9-5.7,21.1-12.7,30.4-20.6c18.8-15.7,34.4-34.2,50.6-51.7c8.1-8.8,16.4-17.3,25.2-25.1c8.8-7.8,18.2-15,28.3-20.8
				c10.1-5.8,20.8-10.5,32-13.5c5.6-1.5,11.3-2.7,17-3.6c5.8-0.8,11.6-1.4,17.4-1.6c11.7-0.4,23.4,0.2,34.8,2.2
				c5.7,1,11.4,2.3,16.9,4c5.5,1.7,10.9,3.7,16.2,6.1c10.5,4.7,20.4,10.9,29.6,17.9c9.2,7.1,17.7,15,25.9,23.3
				c16.3,16.7,31.3,34.9,48.4,51.4c8.5,8.2,17.6,16,27.5,22.6c4.9,3.4,10,6.4,15.3,9.2c5.3,2.8,10.8,5.2,16.3,7.3
				c11.2,4.2,22.8,6.9,34.5,8.2c5.9,0.7,11.7,1.1,17.6,1.2c5.9,0.1,11.7-0.1,17.6-0.5c5.8-0.4,11.7-1.3,17.4-2.3
				c5.8-1.1,11.4-2.6,17-4.3c11.2-3.5,21.8-8.5,31.7-14.6c9.9-6.1,19-13.2,27.5-20.8c8.5-7.6,16.3-15.7,23.9-23.9
				c15.2-16.4,29.5-33.1,45.6-47.4c8-7.2,16.5-13.6,25.5-19.2c9-5.5,18.5-10,28.4-13.2c2.5-0.9,5-1.5,7.5-2.3c2.5-0.6,5-1.3,7.6-1.8
				c5.1-1.1,10.2-1.8,15.4-2.4c10.3-1,20.7-1.2,30.9-0.4c10.2,0.8,20.3,2.5,30,5.4c4.8,1.4,9.6,3.1,14.2,5c4.6,1.9,9.1,4.1,13.5,6.6
				c17.5,9.7,32.5,23,46.2,37.2c13.8,14.2,26.5,29.2,40.3,43.2c6.9,7,14,13.7,21.5,19.9c7.5,6.2,15.5,11.8,23.9,16.5
				c16.8,9.6,35.2,15.5,53.7,17.8l3.5,0.4l3.5,0.3c2.3,0.2,4.6,0.3,6.9,0.5c1.1,0.1,2.3,0.1,3.4,0.1c1.8,0,3.6,0.1,5.5,0.1l3.4,0.1
				c0.8,0.3,0.4-0.8,0.5-1.2v-1.7c0-2,0-3.9,0-5.9c0-8.9,0-17.7,0-26.4c0-17.5,0-34.5,0-51.3c0-267.6,0-440.3,0-440.3s0-4.6,0-40.7
				c0-18.1,0-44,0-81.2c0-4.7,0-9.6,0-14.7c0-1.3,0-2.5,0-3.8v-1.9v-1v-0.5c0-0.1,0.1-0.2-0.1-0.2h-0.2c-2.5,0-5,0-7.6,0
				c-2.6,0-5.2,0-7.9,0c-10.8,0-22.3,0-34.6,0c-24.6,0-52.5,0-84,0c-82.9,0-717.2,0-1394.2,0c-84.6,0-169.9,0-254.9,0
				c-42.5,0-84.9,0-127.1,0c-10.5,0-21.1,0-31.6,0c-6,0-12.1,0-18.1,0h-2c-0.7-0.1-1.4-0.1-1.2,0.8l0,4l0,5.5l0,7.9
				c0,21,0.1,41.9,0.1,62.7c0.3,135.7,0.5,267.2,0.8,387.8c0,7,0,12.7,0.1,15.7C-20.6,430.9-19.2,437.7-16.7,447.7
				c2.5-10,3.8-16.8,3.8-28.8c0-3,0-8.7,0-15.7c-0.2-120.6-0.5-252.1-0.8-387.8c0-20.8-0.1-41.7-0.1-62.7l0-7.9l0-2
				c0-0.5,0-0.5,0-0.4l0,0c0,0,0,0,0,0c4.5,0,8.9,0,13.4,0c10.5,0,21.1,0,31.6,0c42.2,0,84.6,0,127.1,0c85,0,170.2,0,254.9,0
				c677,0,1311.3,0,1394.2,0c31.5,0,59.4,0,84,0c12.3,0,23.8,0,34.6,0c2.7,0,5.3,0,7.9,0h0.1h0h0h0v0c0,4.9,0,9.6,0,14.2
				c0,37.2,0,63.1,0,81.2c0,36.1,0,40.7,0,40.7s0,172.7,0,440.3c0,16.7,0,33.8,0,51.3c0,8.7,0,17.5,0,26.4v0.8v0v0l0,0l0,0l-1.3,0
				c-1.1,0-2.2-0.1-3.3-0.1c-2.2-0.1-4.4-0.2-6.6-0.4l-3.3-0.3l-3.3-0.4c-17.6-2.2-34.9-7.8-50.8-16.8c-15.9-9-30.2-21.4-43.6-35.1
				c-13.5-13.7-26.2-28.7-40.2-43.2c-3.5-3.6-7.1-7.2-10.8-10.7c-3.7-3.5-7.6-6.9-11.5-10.2c-8-6.5-16.5-12.6-25.7-17.7
				c-4.6-2.6-9.4-4.9-14.2-6.9c-4.9-2.1-9.9-3.8-15-5.3c-10.2-3-20.8-4.8-31.6-5.7c-2.7-0.2-5.4-0.3-8-0.4l-4-0.1l-2,0l-2,0l-4,0.1
				c-1.3,0-2.7,0.1-4,0.2c-2.7,0.1-5.4,0.4-8.1,0.6c-5.4,0.6-10.8,1.3-16.2,2.5c-2.7,0.5-5.3,1.2-8,1.9c-2.6,0.8-5.3,1.5-7.9,2.4
				c-10.5,3.4-20.6,8.2-30.1,14c-9.5,5.8-18.3,12.6-26.6,20c-16.6,14.8-31.1,31.7-46.1,48c-7.5,8.1-15.2,16-23.4,23.4
				c-8.2,7.4-16.9,14.2-26.3,19.9c-9.4,5.7-19.4,10.4-30,13.8c-5.3,1.7-10.6,3.1-16.1,4.1c-5.5,1-11,1.8-16.6,2.2
				c-22.3,1.7-45.2-0.5-66.3-8.4c-5.3-2-10.4-4.2-15.4-6.9c-5-2.6-9.9-5.6-14.5-8.8c-9.4-6.4-18.2-13.8-26.5-21.8
				c-16.7-16-31.6-34.2-48.3-51.2c-8.3-8.5-17.1-16.7-26.7-24.1c-9.6-7.4-20-13.9-31.1-18.9c-5.6-2.5-11.3-4.7-17.1-6.5
				c-5.8-1.8-11.8-3.1-17.8-4.2c-12-2.1-24.3-2.7-36.4-2.3c-6.1,0.2-12.2,0.8-18.2,1.7c-6.1,0.9-12.1,2.2-18,3.8
				c-11.9,3.2-23.3,8.1-33.9,14.3c-10.6,6.1-20.4,13.6-29.5,21.7c-9.1,8.1-17.5,16.8-25.7,25.6c-16.3,17.7-31.8,35.9-49.9,51
				c-9,7.5-18.7,14.3-29,19.6c-10.3,5.4-21.4,9.3-32.7,12c-5.7,1.3-11.5,2.2-17.3,2.8c-5.8,0.6-11.7,0.8-17.5,0.9
				c-5.8-0.1-11.7-0.3-17.5-0.9c-5.8-0.6-11.6-1.5-17.2-2.7c-11.3-2.6-22.3-6.4-32.6-11.8c-10.3-5.3-19.9-11.9-28.9-19.3
				c-18-14.9-33.3-32.9-49.4-50.3c-8-8.7-16.3-17.3-25.1-25.4c-8.8-8-18.3-15.4-28.6-21.7c-10.2-6.3-21.3-11.2-32.7-14.8
				c-5.7-1.7-11.6-3.1-17.4-4.2c-5.9-1.1-11.8-1.7-17.7-2.2c-11.8-0.7-23.7-0.5-35.4,1.1c-11.7,1.5-23.3,4.5-34.3,8.7
				c-11,4.3-21.4,10-30.9,16.6c-9.6,6.7-18.4,14.2-26.6,22.2c-16.5,15.9-30.9,33.3-46.3,49.2c-7.7,7.9-15.6,15.5-24,22.3
				c-4.2,3.4-8.5,6.6-13,9.6c-4.5,3-9.1,5.7-13.8,8.1c-4.7,2.5-9.6,4.6-14.6,6.4c-2.5,1-5,1.7-7.5,2.6c-2.5,0.7-5.1,1.5-7.6,2.1
				c-2.6,0.7-5.1,1.1-7.7,1.7l-3.9,0.7c-1.3,0.2-2.6,0.4-3.9,0.6c-5.2,0.7-10.5,1.1-15.7,1.3c-10.5,0.3-21-0.2-31.2-1.7
				c-5.1-0.8-10.2-1.9-15.2-3.1c-5-1.4-9.8-2.9-14.6-4.8c-4.7-1.9-9.4-4-13.9-6.4c-4.5-2.4-8.8-5-13.1-7.8c-4.2-2.8-8.3-5.9-12.2-9
				c-4-3.2-7.8-6.5-11.5-9.9c-14.9-13.8-28-29.1-41.7-43.9c-13.6-14.7-28-29-44.4-40.3c-8.2-5.7-16.9-10.5-25.9-14.4
				c-4.5-2-9.1-3.6-13.8-5.1c-1.2-0.4-2.3-0.7-3.5-1l-1.8-0.5c-0.3-0.1-0.6-0.2-0.9-0.2l-0.3-0.1l-0.2,0c-1.8-0.4-3.4-0.8-4.9-1.2
				c-3-0.6-5.5-1.2-7.1-1.4c-1.5-0.2-3-0.5-4.3-0.6c-1.4-0.1-2.7-0.2-4-0.3c-1.3-0.1-2.5-0.1-3.7-0.1c-1.2,0-2.3,0.1-3.5,0.1
				c-2.3,0.1-4.5,0.5-6.8,0.8C-11.9,446.6-14.2,447.1-16.7,447.7z"/>
		</g>
	</g>
</g>
</svg>
