<?xml version="1.0" encoding="utf-8"?>
<!-- Generator: Adobe Illustrator 23.0.1, SVG Export Plug-In . SVG Version: 6.00 Build 0)  -->
<svg version="1.1" id="Layer_1" xmlns="http://www.w3.org/2000/svg" xmlns:xlink="http://www.w3.org/1999/xlink" x="0px" y="0px"
	 viewBox="0 0 559.9 1080" style="enable-background:new 0 0 559.9 1080;" xml:space="preserve">
<style type="text/css">
	.st0{display:none;fill:#027BCE;}
	.st1{display:none;opacity:0.77;}
	.st2{display:inline;}
	.st3{fill:#1B3C54;}
	.st4{display:none;}
	.st5{display:inline;fill:#132838;}
	.st6{display:none;fill:#142A3A;}
	.st7{display:none;fill:#142C3D;}
	.st8{display:none;fill:#152D3F;}
	.st9{display:none;fill:#162E41;}
	.st10{display:none;fill:#162F43;}
	.st11{display:none;fill:#152C3D;}
	.st12{display:none;fill:#162F41;}
	.st13{display:none;fill:#173246;}
	.st14{display:none;fill:#18344A;}
	.st15{display:none;fill:#19374F;}
	.st16{display:none;fill:#152F3F;}
	.st17{display:none;fill:#173346;}
	.st18{display:none;fill:#19364C;}
	.st19{display:none;fill:#1B3B54;}
	.st20{display:none;fill:#1D3E5A;}
	.st21{display:none;fill:#163142;}
	.st22{display:none;fill:#19364A;}
	.st23{display:none;fill:#1B3B53;}
	.st24{display:none;fill:#1D415D;}
	.st25{display:none;fill:#204666;}
	.st26{display:inline;fill:#173344;}
	.st27{display:inline;fill:#1A3A4F;}
	.st28{display:inline;fill:#1D405A;}
	.st29{display:inline;fill:#204766;}
	.st30{display:inline;fill:#234D71;}
	.st31{fill:#132838;}
	.st32{fill:#173146;}
	.st33{fill:#1B3A53;}
	.st34{fill:#1E4261;}
	.st35{fill:#224B6E;}
	.st36{fill:#26547C;}
	.st37{fill:#26547C;stroke:#26547C;stroke-miterlimit:10;}
</style>
<path class="st0" d="M2205.7,593.3c-137.1,0-137.1-153.6-274.3-153.6c-137.1,0-137.1,153.6-274.3,153.6
	c-137.1,0-137.1-153.6-274.3-153.6c-137.1,0-137.1,153.6-274.3,153.6c-137.1,0-137.1-153.6-274.3-153.6
	c-137.1,0-137.1,153.6-274.3,153.6S422.8,439.7,285.7,439.7v662.8h1921L2205.7,593.3z"/>
<g class="st1">
	<g class="st2">
		<path class="st3" d="M269.4,463C409,463,409,616.6,548.6,616.6S688.2,463,827.9,463c139.6,0,139.6,153.6,279.2,153.6
			S1246.8,463,1386.4,463s139.6,153.6,279.2,153.6S1805.1,463,1944.7,463s139.6,153.6,279.2,153.6V-46.2H268.4L269.4,463z"/>
	</g>
</g>
<g>
	<g>
		<g class="st4">
			<path class="st5" d="M318.7,517.5c139.6,0,139.6,153.6,279.2,153.6s139.6-153.6,279.2-153.6s139.7,153.6,279.3,153.6
				s139.6-153.6,279.2-153.6s139.6,153.6,279.2,153.6s139.6-153.6,279.2-153.6s139.6,153.6,279.2,153.6V8.3H317.7L318.7,517.5z"/>
		</g>
		<g class="st4">
			<path class="st5" d="M312.4,510.9c139.6,0,139.6,153.6,279.2,153.6s139.6-153.6,279.2-153.6s139.6,153.6,279.2,153.6
				s139.6-153.6,279.2-153.6s139.6,153.6,279.2,153.6s139.6-153.6,279.2-153.6s139.6,153.6,279.2,153.6V1.7H311.4L312.4,510.9z"/>
		</g>
		<g class="st4">
			<path class="st5" d="M306.1,504.3c139.6,0,139.6,153.6,279.2,153.6s139.6-153.6,279.2-153.6s139.6,153.6,279.3,153.6
				s139.6-153.6,279.2-153.6s139.6,153.6,279.2,153.6s139.6-153.6,279.2-153.6s139.6,153.6,279.2,153.6V-4.9H305.1L306.1,504.3z"/>
		</g>
		<g class="st4">
			<path class="st5" d="M299.8,497.7c139.6,0,139.6,153.6,279.2,153.6s139.6-153.6,279.2-153.6s139.6,153.6,279.2,153.6
				s139.6-153.6,279.2-153.6s139.6,153.6,279.2,153.6s139.6-153.6,279.2-153.6s139.6,153.6,279.2,153.6V-11.5H298.7L299.8,497.7z"/>
		</g>
		<g class="st4">
			<path class="st5" d="M293.4,491.1c139.6,0,139.6,153.6,279.2,153.6s139.6-153.6,279.2-153.6S991.4,644.7,1131,644.7
				s139.6-153.6,279.2-153.6s139.6,153.6,279.2,153.6s139.6-153.6,279.2-153.6s139.6,153.6,279.2,153.6V-18.1H292.4L293.4,491.1z"/>
		</g>
	</g>
	<g>
		<path class="st6" d="M311.4,510.1c139.6,0,139.6,153.6,279.2,153.6s139.6-153.6,279.2-153.6s139.7,153.6,279.3,153.6
			s139.6-153.6,279.2-153.6s139.6,153.6,279.2,153.6s139.6-153.6,279.2-153.6s139.6,153.6,279.2,153.6V0.9H310.4L311.4,510.1z"/>
		<path class="st7" d="M305.1,503.5c139.6,0,139.6,153.6,279.2,153.6s139.6-153.6,279.2-153.6s139.6,153.6,279.2,153.6
			s139.6-153.6,279.2-153.6s139.6,153.6,279.2,153.6s139.6-153.6,279.2-153.6s139.6,153.6,279.2,153.6V-5.7H304.1L305.1,503.5z"/>
		<path class="st8" d="M298.8,496.9c139.6,0,139.6,153.6,279.2,153.6s139.6-153.6,279.2-153.6s139.6,153.6,279.3,153.6
			s139.6-153.6,279.2-153.6s139.6,153.6,279.2,153.6s139.6-153.6,279.2-153.6s139.6,153.6,279.2,153.6V-12.3H297.8L298.8,496.9z"/>
		<path class="st9" d="M292.5,490.3c139.6,0,139.6,153.6,279.2,153.6s139.6-153.6,279.2-153.6s139.6,153.6,279.2,153.6
			s139.6-153.6,279.2-153.6s139.6,153.6,279.2,153.6s139.6-153.6,279.2-153.6s139.6,153.6,279.2,153.6V-18.9H291.4L292.5,490.3z"/>
		<path class="st10" d="M286.1,483.7c139.6,0,139.6,153.6,279.2,153.6s139.6-153.6,279.2-153.6s139.6,153.6,279.2,153.6
			s139.6-153.6,279.2-153.6s139.6,153.6,279.2,153.6s139.6-153.6,279.2-153.6s139.6,153.6,279.2,153.6V-25.5H285.1L286.1,483.7z"/>
	</g>
	<g>
		<path class="st11" d="M304,502.8c139.6,0,139.6,153.6,279.2,153.6s139.6-153.6,279.2-153.6s139.7,153.6,279.3,153.6
			s139.6-153.6,279.2-153.6s139.6,153.6,279.2,153.6s139.6-153.6,279.2-153.6s139.6,153.6,279.2,153.6V-6.4H303L304,502.8z"/>
		<path class="st12" d="M297.7,496.2c139.6,0,139.6,153.6,279.2,153.6s139.6-153.6,279.2-153.6s139.6,153.6,279.2,153.6
			s139.6-153.6,279.2-153.6s139.6,153.6,279.2,153.6s139.6-153.6,279.2-153.6s139.6,153.6,279.2,153.6V-13H296.7L297.7,496.2z"/>
		<path class="st13" d="M291.4,489.6c139.6,0,139.6,153.6,279.2,153.6s139.6-153.6,279.2-153.6s139.6,153.6,279.3,153.6
			s139.6-153.6,279.2-153.6s139.6,153.6,279.2,153.6s139.6-153.6,279.2-153.6s139.6,153.6,279.2,153.6V-19.6H290.4L291.4,489.6z"/>
		<path class="st14" d="M285.1,483c139.6,0,139.6,153.6,279.2,153.6S703.9,483,843.5,483s139.6,153.6,279.2,153.6
			S1262.3,483,1401.9,483s139.6,153.6,279.2,153.6S1820.7,483,1960.3,483s139.6,153.6,279.2,153.6V-26.2H284L285.1,483z"/>
		<path class="st15" d="M278.7,476.4c139.6,0,139.6,153.6,279.2,153.6s139.6-153.6,279.2-153.6S976.7,630,1116.3,630
			s139.6-153.6,279.2-153.6S1535.1,630,1674.7,630s139.6-153.6,279.2-153.6S2093.5,630,2233.1,630V-32.8H277.7L278.7,476.4z"/>
	</g>
	<g>
		<path class="st16" d="M296.7,495.4c139.6,0,139.6,153.6,279.2,153.6s139.6-153.6,279.2-153.6S994.8,649,1134.4,649
			s139.6-153.6,279.2-153.6S1553.2,649,1692.8,649s139.6-153.6,279.2-153.6S2111.6,649,2251.2,649V-13.8H295.7L296.7,495.4z"/>
		<path class="st17" d="M290.4,488.8c139.6,0,139.6,153.6,279.2,153.6s139.6-153.6,279.2-153.6S988.4,642.4,1128,642.4
			s139.6-153.6,279.2-153.6s139.6,153.6,279.2,153.6s139.6-153.6,279.2-153.6s139.6,153.6,279.2,153.6V-20.4H289.4L290.4,488.8z"/>
		<path class="st18" d="M284.1,482.2c139.6,0,139.6,153.6,279.2,153.6s139.6-153.6,279.2-153.6s139.6,153.6,279.3,153.6
			s139.6-153.6,279.2-153.6s139.6,153.6,279.2,153.6s139.6-153.6,279.2-153.6s139.6,153.6,279.2,153.6V-27H283.1L284.1,482.2z"/>
		<path class="st19" d="M277.8,475.6c139.6,0,139.6,153.6,279.2,153.6s139.6-153.6,279.2-153.6s139.6,153.6,279.2,153.6
			s139.6-153.6,279.2-153.6s139.6,153.6,279.2,153.6s139.6-153.6,279.2-153.6s139.6,153.6,279.2,153.6V-33.6H276.7L277.8,475.6z"/>
		<path class="st20" d="M271.4,469C411,469,411,622.6,550.6,622.6S690.2,469,829.8,469S969.4,622.6,1109,622.6
			S1248.6,469,1388.2,469s139.6,153.6,279.2,153.6S1807,469,1946.6,469s139.6,153.6,279.2,153.6V-40.2H270.4L271.4,469z"/>
	</g>
	<g>
		<path class="st21" d="M289.3,488.1c139.6,0,139.6,153.6,279.2,153.6s139.6-153.6,279.2-153.6S987.4,641.7,1127,641.7
			s139.6-153.6,279.2-153.6s139.6,153.6,279.2,153.6s139.6-153.6,279.2-153.6s139.6,153.6,279.2,153.6V-21.1H288.3L289.3,488.1z"/>
		<path class="st22" d="M283,481.5c139.6,0,139.6,153.6,279.2,153.6s139.6-153.6,279.2-153.6S981,635.1,1120.6,635.1
			s139.6-153.6,279.2-153.6s139.6,153.6,279.2,153.6s139.6-153.6,279.2-153.6s139.6,153.6,279.2,153.6V-27.7H282L283,481.5z"/>
		<path class="st23" d="M276.7,474.9c139.6,0,139.6,153.6,279.2,153.6s139.6-153.6,279.2-153.6s139.6,153.6,279.3,153.6
			s139.6-153.6,279.2-153.6s139.6,153.6,279.2,153.6s139.6-153.6,279.2-153.6s139.6,153.6,279.2,153.6V-34.3H275.7L276.7,474.9z"/>
		<path class="st24" d="M270.4,468.3c139.6,0,139.6,153.6,279.2,153.6s139.6-153.6,279.2-153.6S968.4,621.9,1108,621.9
			s139.6-153.6,279.2-153.6s139.6,153.6,279.2,153.6s139.6-153.6,279.2-153.6s139.6,153.6,279.2,153.6V-40.9H269.3L270.4,468.3z"/>
		<path class="st25" d="M264,461.7c139.6,0,139.6,153.6,279.2,153.6s139.6-153.6,279.2-153.6S962,615.3,1101.6,615.3
			s139.6-153.6,279.2-153.6s139.6,153.6,279.2,153.6s139.6-153.6,279.2-153.6s139.6,153.6,279.2,153.6V-47.5H263L264,461.7z"/>
	</g>
	<g>
		<g class="st4">
			<path class="st26" d="M282,480.7c139.6,0,139.6,153.6,279.2,153.6s139.6-153.6,279.2-153.6s139.7,153.6,279.3,153.6
				s139.6-153.6,279.2-153.6s139.6,153.6,279.2,153.6s139.6-153.6,279.2-153.6s139.6,153.6,279.2,153.6V-28.5H281L282,480.7z"/>
		</g>
		<g class="st4">
			<path class="st27" d="M275.7,474.1c139.6,0,139.6,153.6,279.2,153.6s139.6-153.6,279.2-153.6s139.6,153.6,279.2,153.6
				s139.6-153.6,279.2-153.6s139.6,153.6,279.2,153.6s139.6-153.6,279.2-153.6s139.6,153.6,279.2,153.6V-35.1H274.7L275.7,474.1z"/>
		</g>
		<g class="st4">
			<path class="st28" d="M269.4,467.5c139.6,0,139.6,153.6,279.2,153.6s139.6-153.6,279.2-153.6s139.6,153.6,279.3,153.6
				s139.6-153.6,279.2-153.6s139.6,153.6,279.2,153.6s139.6-153.6,279.2-153.6s139.6,153.6,279.2,153.6V-41.7H268.4L269.4,467.5z"/>
		</g>
		<g class="st4">
			<path class="st29" d="M263.1,460.9c139.6,0,139.6,153.6,279.2,153.6s139.6-153.6,279.2-153.6s139.6,153.6,279.2,153.6
				s139.6-153.6,279.2-153.6s139.6,153.6,279.2,153.6s139.6-153.6,279.2-153.6s139.6,153.6,279.2,153.6V-48.3H262L263.1,460.9z"/>
		</g>
		<g class="st4">
			<path class="st30" d="M256.7,454.3c139.6,0,139.6,153.6,279.2,153.6s139.6-153.6,279.2-153.6s139.6,153.6,279.2,153.6
				s139.6-153.6,279.2-153.6s139.6,153.6,279.2,153.6s139.6-153.6,279.2-153.6s139.6,153.6,279.2,153.6V-54.9H255.7L256.7,454.3z"/>
		</g>
	</g>
</g>
<g>
	<g>
		<g class="st4">
			<path class="st5" d="M876.1,517.4c139.6,0,139.6,153.6,279.2,153.6s139.6-153.6,279.2-153.6S1574.2,671,1713.8,671
				s139.6-153.6,279.2-153.6S2132.6,671,2272.2,671c139.6,0,139.6-153.6,279.2-153.6S2691,671,2830.6,671V8.2H875.1L876.1,517.4z"/>
		</g>
		<g class="st4">
			<path class="st5" d="M869.8,510.8c139.6,0,139.6,153.6,279.2,153.6s139.6-153.6,279.2-153.6s139.6,153.6,279.2,153.6
				s139.6-153.6,279.2-153.6s139.6,153.6,279.2,153.6s139.6-153.6,279.2-153.6c139.6,0,139.6,153.6,279.2,153.6V1.6H868.8
				L869.8,510.8z"/>
		</g>
		<g class="st4">
			<path class="st5" d="M863.5,504.2c139.6,0,139.6,153.6,279.2,153.6s139.6-153.6,279.2-153.6s139.6,153.6,279.3,153.6
				s139.6-153.6,279.2-153.6s139.6,153.6,279.2,153.6c139.6,0,139.6-153.6,279.2-153.6c139.6,0,139.6,153.6,279.2,153.6V-5H862.5
				L863.5,504.2z"/>
		</g>
		<g class="st4">
			<path class="st5" d="M857.2,497.6c139.6,0,139.6,153.6,279.2,153.6s139.6-153.6,279.2-153.6s139.6,153.6,279.2,153.6
				s139.6-153.6,279.2-153.6s139.6,153.6,279.2,153.6s139.6-153.6,279.2-153.6c139.6,0,139.6,153.6,279.2,153.6V-11.6H856.1
				L857.2,497.6z"/>
		</g>
		<g class="st4">
			<path class="st5" d="M850.8,491c139.6,0,139.6,153.6,279.2,153.6S1269.6,491,1409.2,491s139.6,153.6,279.2,153.6
				S1828,491,1967.6,491s139.6,153.6,279.2,153.6S2386.4,491,2526,491c139.6,0,139.6,153.6,279.2,153.6V-18.2H849.8L850.8,491z"/>
		</g>
	</g>
	<g>
		<path class="st6" d="M868.8,510c139.6,0,139.6,153.6,279.2,153.6S1287.6,510,1427.2,510s139.7,153.6,279.3,153.6
			S1846.1,510,1985.7,510s139.6,153.6,279.2,153.6S2404.5,510,2544.1,510s139.6,153.6,279.2,153.6V0.8H867.8L868.8,510z"/>
		<path class="st7" d="M862.5,503.4c139.6,0,139.6,153.6,279.2,153.6s139.6-153.6,279.2-153.6S1560.5,657,1700.1,657
			s139.6-153.6,279.2-153.6S2118.9,657,2258.5,657c139.6,0,139.6-153.6,279.2-153.6S2677.3,657,2816.9,657V-5.8H861.5L862.5,503.4z"
			/>
		<path class="st8" d="M856.2,496.8c139.6,0,139.6,153.6,279.2,153.6s139.6-153.6,279.2-153.6s139.6,153.6,279.3,153.6
			s139.6-153.6,279.2-153.6s139.6,153.6,279.2,153.6s139.6-153.6,279.2-153.6c139.6,0,139.6,153.6,279.2,153.6V-12.4H855.2
			L856.2,496.8z"/>
		<path class="st9" d="M849.9,490.2c139.6,0,139.6,153.6,279.2,153.6s139.6-153.6,279.2-153.6s139.6,153.6,279.2,153.6
			s139.6-153.6,279.2-153.6s139.6,153.6,279.2,153.6c139.6,0,139.6-153.6,279.2-153.6c139.6,0,139.6,153.6,279.2,153.6V-19H848.8
			L849.9,490.2z"/>
		<path class="st10" d="M843.5,483.6c139.6,0,139.6,153.6,279.2,153.6s139.6-153.6,279.2-153.6s139.6,153.6,279.2,153.6
			s139.6-153.6,279.2-153.6s139.6,153.6,279.2,153.6c139.6,0,139.6-153.6,279.2-153.6c139.6,0,139.6,153.6,279.2,153.6V-25.6H842.5
			L843.5,483.6z"/>
	</g>
	<g>
		<path class="st11" d="M861.4,502.7c139.6,0,139.6,153.6,279.2,153.6s139.6-153.6,279.2-153.6s139.7,153.6,279.3,153.6
			s139.6-153.6,279.2-153.6s139.6,153.6,279.2,153.6c139.6,0,139.6-153.6,279.2-153.6c139.6,0,139.6,153.6,279.2,153.6V-6.5H860.4
			L861.4,502.7z"/>
		<path class="st12" d="M855.1,496.1c139.6,0,139.6,153.6,279.2,153.6s139.6-153.6,279.2-153.6s139.6,153.6,279.2,153.6
			s139.6-153.6,279.2-153.6s139.6,153.6,279.2,153.6c139.6,0,139.6-153.6,279.2-153.6c139.6,0,139.6,153.6,279.2,153.6V-13.1H854.1
			L855.1,496.1z"/>
		<path class="st13" d="M848.8,489.5c139.6,0,139.6,153.6,279.2,153.6s139.6-153.6,279.2-153.6s139.6,153.6,279.3,153.6
			s139.6-153.6,279.2-153.6s139.6,153.6,279.2,153.6s139.6-153.6,279.2-153.6c139.6,0,139.6,153.6,279.2,153.6V-19.7H847.8
			L848.8,489.5z"/>
		<path class="st14" d="M842.5,482.9c139.6,0,139.6,153.6,279.2,153.6s139.6-153.6,279.2-153.6s139.6,153.6,279.2,153.6
			s139.6-153.6,279.2-153.6s139.6,153.6,279.2,153.6c139.6,0,139.6-153.6,279.2-153.6c139.6,0,139.6,153.6,279.2,153.6V-26.3H841.4
			L842.5,482.9z"/>
		<path class="st15" d="M836.1,476.3c139.6,0,139.6,153.6,279.2,153.6s139.6-153.6,279.2-153.6s139.6,153.6,279.2,153.6
			s139.6-153.6,279.2-153.6s139.6,153.6,279.2,153.6c139.6,0,139.6-153.6,279.2-153.6s139.6,153.6,279.2,153.6V-32.9H835.1
			L836.1,476.3z"/>
	</g>
	<g>
		<path class="st16" d="M854.1,495.3c139.6,0,139.6,153.6,279.2,153.6s139.6-153.6,279.2-153.6s139.7,153.6,279.3,153.6
			s139.6-153.6,279.2-153.6s139.6,153.6,279.2,153.6s139.6-153.6,279.2-153.6c139.6,0,139.6,153.6,279.2,153.6V-13.9H853.1
			L854.1,495.3z"/>
		<path class="st17" d="M847.8,488.7c139.6,0,139.6,153.6,279.2,153.6s139.6-153.6,279.2-153.6s139.6,153.6,279.2,153.6
			s139.6-153.6,279.2-153.6s139.6,153.6,279.2,153.6s139.6-153.6,279.2-153.6c139.6,0,139.6,153.6,279.2,153.6V-20.5H846.8
			L847.8,488.7z"/>
		<path class="st18" d="M841.5,482.1c139.6,0,139.6,153.6,279.2,153.6s139.6-153.6,279.2-153.6s139.6,153.6,279.3,153.6
			s139.6-153.6,279.2-153.6s139.6,153.6,279.2,153.6c139.6,0,139.6-153.6,279.2-153.6c139.6,0,139.6,153.6,279.2,153.6V-27.1H840.5
			L841.5,482.1z"/>
		<path class="st19" d="M835.2,475.5c139.6,0,139.6,153.6,279.2,153.6s139.6-153.6,279.2-153.6s139.6,153.6,279.2,153.6
			s139.6-153.6,279.2-153.6s139.6,153.6,279.2,153.6s139.6-153.6,279.2-153.6c139.6,0,139.6,153.6,279.2,153.6V-33.7H834.1
			L835.2,475.5z"/>
		<path class="st20" d="M828.8,468.9c139.6,0,139.6,153.6,279.2,153.6s139.6-153.6,279.2-153.6s139.6,153.6,279.2,153.6
			s139.6-153.6,279.2-153.6s139.6,153.6,279.2,153.6s139.6-153.6,279.2-153.6c139.6,0,139.6,153.6,279.2,153.6V-40.3H827.8
			L828.8,468.9z"/>
	</g>
	<g>
		<path class="st21" d="M846.7,488c139.6,0,139.6,153.6,279.2,153.6S1265.5,488,1405.1,488s139.7,153.6,279.3,153.6
			S1824,488,1963.6,488s139.6,153.6,279.2,153.6S2382.4,488,2522,488c139.6,0,139.6,153.6,279.2,153.6V-21.2H845.7L846.7,488z"/>
		<path class="st22" d="M840.4,481.4C980,481.4,980,635,1119.6,635s139.6-153.6,279.2-153.6S1538.4,635,1678,635
			s139.6-153.6,279.2-153.6S2096.8,635,2236.4,635s139.6-153.6,279.2-153.6c139.6,0,139.6,153.6,279.2,153.6V-27.8H839.4
			L840.4,481.4z"/>
		<path class="st23" d="M834.1,474.8c139.6,0,139.6,153.6,279.2,153.6s139.6-153.6,279.2-153.6s139.6,153.6,279.3,153.6
			s139.6-153.6,279.2-153.6s139.6,153.6,279.2,153.6s139.6-153.6,279.2-153.6c139.6,0,139.6,153.6,279.2,153.6V-34.4H833.1
			L834.1,474.8z"/>
		<path class="st24" d="M827.8,468.2c139.6,0,139.6,153.6,279.2,153.6s139.6-153.6,279.2-153.6s139.6,153.6,279.2,153.6
			s139.6-153.6,279.2-153.6s139.6,153.6,279.2,153.6s139.6-153.6,279.2-153.6c139.6,0,139.6,153.6,279.2,153.6V-41H826.7
			L827.8,468.2z"/>
		<path class="st25" d="M821.4,461.6c139.6,0,139.6,153.6,279.2,153.6s139.6-153.6,279.2-153.6s139.6,153.6,279.2,153.6
			s139.6-153.6,279.2-153.6s139.6,153.6,279.2,153.6c139.6,0,139.6-153.6,279.2-153.6c139.6,0,139.6,153.6,279.2,153.6V-47.6H820.4
			L821.4,461.6z"/>
	</g>
	<g>
		<g class="st4">
			<path class="st26" d="M839.4,480.6c139.6,0,139.6,153.6,279.2,153.6s139.6-153.6,279.2-153.6s139.7,153.6,279.3,153.6
				s139.6-153.6,279.2-153.6s139.6,153.6,279.2,153.6c139.6,0,139.6-153.6,279.2-153.6c139.6,0,139.6,153.6,279.2,153.6V-28.6H838.4
				L839.4,480.6z"/>
		</g>
		<g class="st4">
			<path class="st27" d="M833.1,474c139.6,0,139.6,153.6,279.2,153.6S1251.9,474,1391.5,474s139.6,153.6,279.2,153.6
				S1810.3,474,1949.9,474s139.6,153.6,279.2,153.6c139.6,0,139.6-153.6,279.2-153.6c139.6,0,139.6,153.6,279.2,153.6V-35.2H832.1
				L833.1,474z"/>
		</g>
		<g class="st4">
			<path class="st28" d="M826.8,467.4C966.4,467.4,966.4,621,1106,621s139.6-153.6,279.2-153.6S1524.8,621,1664.5,621
				s139.6-153.6,279.2-153.6S2083.3,621,2222.9,621s139.6-153.6,279.2-153.6c139.6,0,139.6,153.6,279.2,153.6V-41.8H825.8
				L826.8,467.4z"/>
		</g>
		<g class="st4">
			<path class="st29" d="M820.5,460.8c139.6,0,139.6,153.6,279.2,153.6s139.6-153.6,279.2-153.6s139.6,153.6,279.2,153.6
				s139.6-153.6,279.2-153.6s139.6,153.6,279.2,153.6c139.6,0,139.6-153.6,279.2-153.6c139.6,0,139.6,153.6,279.2,153.6V-48.4H819.4
				L820.5,460.8z"/>
		</g>
		<g class="st4">
			<path class="st30" d="M814.1,454.2c139.6,0,139.6,153.6,279.2,153.6s139.6-153.6,279.2-153.6s139.6,153.6,279.2,153.6
				s139.6-153.6,279.2-153.6s139.6,153.6,279.2,153.6c139.6,0,139.6-153.6,279.2-153.6c139.6,0,139.6,153.6,279.2,153.6V-55H813.1
				L814.1,454.2z"/>
		</g>
	</g>
</g>
<g class="st4">
	<g class="st2">
		<g class="st4">
			<path class="st5" d="M872.4,563.9c139.6,0,139.6,153.6,279.2,153.6s139.6-153.6,279.2-153.6s139.7,153.6,279.3,153.6
				s139.6-153.6,279.2-153.6s139.6,153.6,279.2,153.6c139.6,0,139.6-153.6,279.2-153.6c139.6,0,139.6,153.6,279.2,153.6V54.7H871.4
				L872.4,563.9z"/>
		</g>
		<g class="st4">
			<path class="st5" d="M866.1,557.3c139.6,0,139.6,153.6,279.2,153.6s139.6-153.6,279.2-153.6s139.6,153.6,279.2,153.6
				s139.6-153.6,279.2-153.6s139.6,153.6,279.2,153.6c139.6,0,139.6-153.6,279.2-153.6c139.6,0,139.6,153.6,279.2,153.6V48.1H865.1
				L866.1,557.3z"/>
		</g>
		<g class="st4">
			<path class="st5" d="M859.8,550.7c139.6,0,139.6,153.6,279.2,153.6s139.6-153.6,279.2-153.6s139.6,153.6,279.3,153.6
				s139.6-153.6,279.2-153.6s139.6,153.6,279.2,153.6s139.6-153.6,279.2-153.6c139.6,0,139.6,153.6,279.2,153.6V41.5H858.8
				L859.8,550.7z"/>
		</g>
		<g class="st4">
			<path class="st5" d="M853.5,544.1c139.6,0,139.6,153.6,279.2,153.6s139.6-153.6,279.2-153.6s139.6,153.6,279.2,153.6
				s139.6-153.6,279.2-153.6s139.6,153.6,279.2,153.6c139.6,0,139.6-153.6,279.2-153.6c139.6,0,139.6,153.6,279.2,153.6V34.9H852.4
				L853.5,544.1z"/>
		</g>
		<g class="st4">
			<path class="st5" d="M847.1,537.5c139.6,0,139.6,153.6,279.2,153.6s139.6-153.6,279.2-153.6s139.6,153.6,279.2,153.6
				s139.6-153.6,279.2-153.6s139.6,153.6,279.2,153.6c139.6,0,139.6-153.6,279.2-153.6c139.6,0,139.6,153.6,279.2,153.6V28.3H846.1
				L847.1,537.5z"/>
		</g>
		<path class="st31" d="M1363.5,21.7H838.8l1,509.2c139.6,0,140.6,153.6,280.2,153.6c126.2,0,139.3-125.4,243.5-149.6V21.7z"/>
	</g>
	<g class="st2">
		<path class="st6" d="M865.1,556.6c139.6,0,139.6,153.6,279.2,153.6s139.6-153.6,279.2-153.6s139.7,153.6,279.3,153.6
			s139.6-153.6,279.2-153.6s139.6,153.6,279.2,153.6s139.6-153.6,279.2-153.6c139.6,0,139.6,153.6,279.2,153.6V47.4H864.1
			L865.1,556.6z"/>
		<path class="st7" d="M858.8,550c139.6,0,139.6,153.6,279.2,153.6S1277.6,550,1417.2,550s139.6,153.6,279.2,153.6
			S1836,550,1975.6,550s139.6,153.6,279.2,153.6S2394.4,550,2534,550c139.6,0,139.6,153.6,279.2,153.6V40.8H857.8L858.8,550z"/>
		<path class="st8" d="M852.5,543.4c139.6,0,139.6,153.6,279.2,153.6s139.6-153.6,279.2-153.6S1550.5,697,1690.2,697
			s139.6-153.6,279.2-153.6S2109,697,2248.6,697c139.6,0,139.6-153.6,279.2-153.6c139.6,0,139.6,153.6,279.2,153.6V34.2H851.5
			L852.5,543.4z"/>
		<path class="st9" d="M846.2,536.8c139.6,0,139.6,153.6,279.2,153.6s139.6-153.6,279.2-153.6s139.6,153.6,279.2,153.6
			s139.6-153.6,279.2-153.6s139.6,153.6,279.2,153.6s139.6-153.6,279.2-153.6c139.6,0,139.6,153.6,279.2,153.6V27.6H845.1
			L846.2,536.8z"/>
		<path class="st10" d="M839.8,530.2c139.6,0,139.6,153.6,279.2,153.6s139.6-153.6,279.2-153.6s139.6,153.6,279.2,153.6
			s139.6-153.6,279.2-153.6s139.6,153.6,279.2,153.6s139.6-153.6,279.2-153.6c139.6,0,139.6,153.6,279.2,153.6V21H838.8L839.8,530.2
			z"/>
		<path class="st32" d="M831.5,14.4l1,509.2c139.6,0,140.6,153.6,280.2,153.6c128.8,0,139.6-131.1,250.8-150.4V14.4H831.5z"/>
	</g>
	<g class="st2">
		<path class="st11" d="M857.7,549.2c139.6,0,139.6,153.6,279.2,153.6s139.6-153.6,279.2-153.6s139.7,153.6,279.3,153.6
			s139.6-153.6,279.2-153.6s139.6,153.6,279.2,153.6s139.6-153.6,279.2-153.6c139.6,0,139.6,153.6,279.2,153.6V40H856.7L857.7,549.2
			z"/>
		<path class="st12" d="M851.4,542.6c139.6,0,139.6,153.6,279.2,153.6s139.6-153.6,279.2-153.6s139.6,153.6,279.2,153.6
			s139.6-153.6,279.2-153.6s139.6,153.6,279.2,153.6c139.6,0,139.6-153.6,279.2-153.6c139.6,0,139.6,153.6,279.2,153.6V33.4H850.4
			L851.4,542.6z"/>
		<path class="st13" d="M845.1,536c139.6,0,139.6,153.6,279.2,153.6S1263.9,536,1403.5,536s139.6,153.6,279.3,153.6
			S1822.4,536,1962,536s139.6,153.6,279.2,153.6S2380.8,536,2520.4,536s139.6,153.6,279.2,153.6V26.8H844.1L845.1,536z"/>
		<path class="st14" d="M838.8,529.4C978.4,529.4,978.4,683,1118,683s139.6-153.6,279.2-153.6S1536.8,683,1676.4,683
			s139.6-153.6,279.2-153.6S2095.2,683,2234.8,683s139.6-153.6,279.2-153.6c139.6,0,139.6,153.6,279.2,153.6V20.2H837.7L838.8,529.4
			z"/>
		<path class="st15" d="M832.4,522.8c139.6,0,139.6,153.6,279.2,153.6s139.6-153.6,279.2-153.6s139.6,153.6,279.2,153.6
			s139.6-153.6,279.2-153.6s139.6,153.6,279.2,153.6c139.6,0,139.6-153.6,279.2-153.6c139.6,0,139.6,153.6,279.2,153.6V13.6H831.4
			L832.4,522.8z"/>
		<path class="st33" d="M824.1,7l1,509.2c139.6,0,140.6,153.6,280.2,153.6c131.5,0,139.8-136.7,258.2-151.2V7H824.1z"/>
	</g>
	<g class="st2">
		<path class="st16" d="M850.4,541.9c139.6,0,139.6,153.6,279.2,153.6s139.6-153.6,279.2-153.6s139.7,153.6,279.3,153.6
			s139.6-153.6,279.2-153.6s139.6,153.6,279.2,153.6c139.6,0,139.6-153.6,279.2-153.6c139.6,0,139.6,153.6,279.2,153.6V32.7H849.4
			L850.4,541.9z"/>
		<path class="st17" d="M844.1,535.3c139.6,0,139.6,153.6,279.2,153.6s139.6-153.6,279.2-153.6s139.6,153.6,279.2,153.6
			s139.6-153.6,279.2-153.6s139.6,153.6,279.2,153.6c139.6,0,139.6-153.6,279.2-153.6c139.6,0,139.6,153.6,279.2,153.6V26.1H843.1
			L844.1,535.3z"/>
		<path class="st18" d="M837.8,528.7c139.6,0,139.6,153.6,279.2,153.6s139.6-153.6,279.2-153.6s139.6,153.6,279.3,153.6
			s139.6-153.6,279.2-153.6s139.6,153.6,279.2,153.6s139.6-153.6,279.2-153.6c139.6,0,139.6,153.6,279.2,153.6V19.5H836.8
			L837.8,528.7z"/>
		<path class="st19" d="M831.5,522.1c139.6,0,139.6,153.6,279.2,153.6s139.6-153.6,279.2-153.6s139.6,153.6,279.2,153.6
			s139.6-153.6,279.2-153.6s139.6,153.6,279.2,153.6c139.6,0,139.6-153.6,279.2-153.6c139.6,0,139.6,153.6,279.2,153.6V12.9H830.4
			L831.5,522.1z"/>
		<path class="st20" d="M825.1,515.5c139.6,0,139.6,153.6,279.2,153.6s139.6-153.6,279.2-153.6s139.6,153.6,279.2,153.6
			s139.6-153.6,279.2-153.6s139.6,153.6,279.2,153.6c139.6,0,139.6-153.6,279.2-153.6c139.6,0,139.6,153.6,279.2,153.6V6.3H824.1
			L825.1,515.5z"/>
		<path class="st34" d="M816.8-0.3l1,509.2c139.6,0,140.6,153.6,280.2,153.6c134.2,0,140.1-142.3,265.5-152V-0.3H816.8z"/>
	</g>
	<g class="st2">
		<path class="st21" d="M843,534.5c139.6,0,139.6,153.6,279.2,153.6s139.6-153.6,279.2-153.6s139.7,153.6,279.3,153.6
			s139.6-153.6,279.2-153.6s139.6,153.6,279.2,153.6c139.6,0,139.6-153.6,279.2-153.6c139.6,0,139.6,153.6,279.2,153.6V25.3H842
			L843,534.5z"/>
		<path class="st22" d="M836.7,527.9c139.6,0,139.6,153.6,279.2,153.6s139.6-153.6,279.2-153.6s139.6,153.6,279.2,153.6
			s139.6-153.6,279.2-153.6s139.6,153.6,279.2,153.6s139.6-153.6,279.2-153.6c139.6,0,139.6,153.6,279.2,153.6V18.7H835.7
			L836.7,527.9z"/>
		<path class="st23" d="M830.4,521.3c139.6,0,139.6,153.6,279.2,153.6s139.6-153.6,279.2-153.6s139.6,153.6,279.3,153.6
			s139.6-153.6,279.2-153.6s139.6,153.6,279.2,153.6c139.6,0,139.6-153.6,279.2-153.6c139.6,0,139.6,153.6,279.2,153.6V12.1H829.4
			L830.4,521.3z"/>
		<path class="st24" d="M824.1,514.7c139.6,0,139.6,153.6,279.2,153.6s139.6-153.6,279.2-153.6s139.6,153.6,279.2,153.6
			s139.6-153.6,279.2-153.6s139.6,153.6,279.2,153.6c139.6,0,139.6-153.6,279.2-153.6c139.6,0,139.6,153.6,279.2,153.6V5.5H823
			L824.1,514.7z"/>
		<path class="st25" d="M817.7,508.1c139.6,0,139.6,153.6,279.2,153.6s139.6-153.6,279.2-153.6s139.6,153.6,279.2,153.6
			s139.6-153.6,279.2-153.6s139.6,153.6,279.2,153.6s139.6-153.6,279.2-153.6c139.6,0,139.6,153.6,279.2,153.6V-1.1H816.7
			L817.7,508.1z"/>
		<path class="st35" d="M809.4-7.7l1,509.2c139.6,0,140.6,153.6,280.2,153.6c136.9,0,140.3-148,272.9-152.8v-510L809.4-7.7
			L809.4-7.7z"/>
	</g>
	<g class="st2">
		<g class="st4">
			<path class="st26" d="M835.7,527.1c139.6,0,139.6,153.6,279.2,153.6s139.6-153.6,279.2-153.6s139.7,153.6,279.3,153.6
				s139.6-153.6,279.2-153.6s139.6,153.6,279.2,153.6s139.6-153.6,279.2-153.6c139.6,0,139.6,153.6,279.2,153.6V17.9H834.7
				L835.7,527.1z"/>
		</g>
		<g class="st4">
			<path class="st27" d="M829.4,520.5c139.6,0,139.6,153.6,279.2,153.6s139.6-153.6,279.2-153.6s139.6,153.6,279.2,153.6
				s139.6-153.6,279.2-153.6s139.6,153.6,279.2,153.6c139.6,0,139.6-153.6,279.2-153.6c139.6,0,139.6,153.6,279.2,153.6V11.3H828.4
				L829.4,520.5z"/>
		</g>
		<g class="st4">
			<path class="st28" d="M823.1,513.9c139.6,0,139.6,153.6,279.2,153.6s139.6-153.6,279.2-153.6s139.6,153.6,279.3,153.6
				s139.6-153.6,279.2-153.6s139.6,153.6,279.2,153.6s139.6-153.6,279.2-153.6c139.6,0,139.6,153.6,279.2,153.6V4.7H822.1
				L823.1,513.9z"/>
		</g>
		<g class="st4">
			<path class="st29" d="M816.8,507.3c139.6,0,139.6,153.6,279.2,153.6s139.6-153.6,279.2-153.6s139.6,153.6,279.2,153.6
				s139.6-153.6,279.2-153.6s139.6,153.6,279.2,153.6s139.6-153.6,279.2-153.6c139.6,0,139.6,153.6,279.2,153.6V-1.9H815.7
				L816.8,507.3z"/>
		</g>
		<g class="st4">
			<path class="st30" d="M810.4,500.7c139.6,0,139.6,153.6,279.2,153.6s139.6-153.6,279.2-153.6s139.6,153.6,279.2,153.6
				s139.6-153.6,279.2-153.6s139.6,153.6,279.2,153.6c139.6,0,139.6-153.6,279.2-153.6c139.6,0,139.6,153.6,279.2,153.6V-8.5H809.4
				L810.4,500.7z"/>
		</g>
		<g>
			<path class="st36" d="M802.1-15.1l1,509.2c139.6,0,140.6,153.6,280.2,153.6s140.6-153.6,280.2-153.6V-15.1H802.1z"/>
		</g>
	</g>
</g>
<g class="st4">
	<g class="st2">
		<g class="st4">
			<path class="st5" d="M319.7,563.9c139.6,0,139.6,153.6,279.2,153.6s139.6-153.6,279.2-153.6s139.7,153.6,279.3,153.6
				s139.6-153.6,279.2-153.6s139.6,153.6,279.2,153.6s139.6-153.6,279.2-153.6s139.6,153.6,279.2,153.6V54.7H318.7L319.7,563.9z"/>
		</g>
		<g class="st4">
			<path class="st5" d="M313.4,557.3c139.6,0,139.6,153.6,279.2,153.6s139.6-153.6,279.2-153.6s139.6,153.6,279.2,153.6
				s139.6-153.6,279.2-153.6s139.6,153.6,279.2,153.6s139.6-153.6,279.2-153.6s139.6,153.6,279.2,153.6V48.1H312.4L313.4,557.3z"/>
		</g>
		<g class="st4">
			<path class="st5" d="M307.1,550.7c139.6,0,139.6,153.6,279.2,153.6s139.6-153.6,279.2-153.6s139.6,153.6,279.3,153.6
				s139.6-153.6,279.2-153.6s139.6,153.6,279.2,153.6s139.6-153.6,279.2-153.6s139.6,153.6,279.2,153.6V41.5H306.1L307.1,550.7z"/>
		</g>
		<g class="st4">
			<path class="st5" d="M300.8,544.1c139.6,0,139.6,153.6,279.2,153.6s139.6-153.6,279.2-153.6s139.6,153.6,279.2,153.6
				s139.6-153.6,279.2-153.6s139.6,153.6,279.2,153.6s139.6-153.6,279.2-153.6s139.6,153.6,279.2,153.6V34.9H299.7L300.8,544.1z"/>
		</g>
		<g class="st4">
			<path class="st5" d="M294.4,537.5c139.6,0,139.6,153.6,279.2,153.6s139.6-153.6,279.2-153.6S992.4,691.1,1132,691.1
				s139.6-153.6,279.2-153.6s139.6,153.6,279.2,153.6s139.6-153.6,279.2-153.6s139.6,153.6,279.2,153.6V28.3H293.4L294.4,537.5z"/>
		</g>
		<path class="st31" d="M810.8,21.7H286.1l1,509.2c139.6,0,140.6,153.6,280.2,153.6c126.2,0,139.3-125.4,243.5-149.6V21.7z"/>
	</g>
	<g class="st2">
		<path class="st6" d="M312.4,556.6c139.6,0,139.6,153.6,279.2,153.6s139.6-153.6,279.2-153.6s139.7,153.6,279.3,153.6
			s139.6-153.6,279.2-153.6s139.6,153.6,279.2,153.6s139.6-153.6,279.2-153.6s139.6,153.6,279.2,153.6V47.4H311.4L312.4,556.6z"/>
		<path class="st7" d="M306.1,550c139.6,0,139.6,153.6,279.2,153.6S724.9,550,864.5,550s139.6,153.6,279.2,153.6
			S1283.3,550,1422.9,550s139.6,153.6,279.2,153.6S1841.7,550,1981.3,550s139.6,153.6,279.2,153.6V40.8H305.1L306.1,550z"/>
		<path class="st8" d="M299.8,543.4C439.4,543.4,439.4,697,579,697s139.6-153.6,279.2-153.6S997.8,697,1137.5,697
			s139.6-153.6,279.2-153.6S1556.3,697,1695.9,697s139.6-153.6,279.2-153.6S2114.7,697,2254.3,697V34.2H298.8L299.8,543.4z"/>
		<path class="st9" d="M293.5,536.8c139.6,0,139.6,153.6,279.2,153.6s139.6-153.6,279.2-153.6s139.6,153.6,279.2,153.6
			s139.6-153.6,279.2-153.6s139.6,153.6,279.2,153.6s139.6-153.6,279.2-153.6s139.6,153.6,279.2,153.6V27.6H292.4L293.5,536.8z"/>
		<path class="st10" d="M287.1,530.2c139.6,0,139.6,153.6,279.2,153.6s139.6-153.6,279.2-153.6s139.6,153.6,279.2,153.6
			s139.6-153.6,279.2-153.6s139.6,153.6,279.2,153.6s139.6-153.6,279.2-153.6s139.6,153.6,279.2,153.6V21H286.1L287.1,530.2z"/>
		<path class="st32" d="M278.8,14.4l1,509.2c139.6,0,140.6,153.6,280.2,153.6c128.8,0,139.6-131.1,250.8-150.4V14.4H278.8z"/>
	</g>
	<g class="st2">
		<path class="st11" d="M305,549.2c139.6,0,139.6,153.6,279.2,153.6s139.6-153.6,279.2-153.6s139.7,153.6,279.3,153.6
			s139.6-153.6,279.2-153.6s139.6,153.6,279.2,153.6s139.6-153.6,279.2-153.6s139.6,153.6,279.2,153.6V40H304L305,549.2z"/>
		<path class="st12" d="M298.7,542.6c139.6,0,139.6,153.6,279.2,153.6s139.6-153.6,279.2-153.6s139.6,153.6,279.2,153.6
			s139.6-153.6,279.2-153.6s139.6,153.6,279.2,153.6s139.6-153.6,279.2-153.6s139.6,153.6,279.2,153.6V33.4H297.7L298.7,542.6z"/>
		<path class="st13" d="M292.4,536C432,536,432,689.6,571.6,689.6S711.2,536,850.8,536s139.6,153.6,279.3,153.6
			S1269.7,536,1409.3,536s139.6,153.6,279.2,153.6S1828.1,536,1967.7,536s139.6,153.6,279.2,153.6V26.8H291.4L292.4,536z"/>
		<path class="st14" d="M286.1,529.4c139.6,0,139.6,153.6,279.2,153.6s139.6-153.6,279.2-153.6S984.1,683,1123.7,683
			s139.6-153.6,279.2-153.6S1542.5,683,1682.1,683s139.6-153.6,279.2-153.6S2100.9,683,2240.5,683V20.2H285L286.1,529.4z"/>
		<path class="st15" d="M279.7,522.8c139.6,0,139.6,153.6,279.2,153.6s139.6-153.6,279.2-153.6s139.6,153.6,279.2,153.6
			s139.6-153.6,279.2-153.6s139.6,153.6,279.2,153.6s139.6-153.6,279.2-153.6s139.6,153.6,279.2,153.6V13.6H278.7L279.7,522.8z"/>
		<path class="st33" d="M271.4,7l1,509.2c139.6,0,140.6,153.6,280.2,153.6c131.5,0,139.8-136.7,258.2-151.2V7H271.4z"/>
	</g>
	<g class="st2">
		<path class="st16" d="M297.7,541.9c139.6,0,139.6,153.6,279.2,153.6s139.6-153.6,279.2-153.6s139.7,153.6,279.3,153.6
			s139.6-153.6,279.2-153.6s139.6,153.6,279.2,153.6s139.6-153.6,279.2-153.6s139.6,153.6,279.2,153.6V32.7H296.7L297.7,541.9z"/>
		<path class="st17" d="M291.4,535.3c139.6,0,139.6,153.6,279.2,153.6s139.6-153.6,279.2-153.6S989.4,688.9,1129,688.9
			s139.6-153.6,279.2-153.6s139.6,153.6,279.2,153.6s139.6-153.6,279.2-153.6s139.6,153.6,279.2,153.6V26.1H290.4L291.4,535.3z"/>
		<path class="st18" d="M285.1,528.7c139.6,0,139.6,153.6,279.2,153.6s139.6-153.6,279.2-153.6s139.6,153.6,279.3,153.6
			s139.6-153.6,279.2-153.6s139.6,153.6,279.2,153.6s139.6-153.6,279.2-153.6s139.6,153.6,279.2,153.6V19.5H284.1L285.1,528.7z"/>
		<path class="st19" d="M278.8,522.1c139.6,0,139.6,153.6,279.2,153.6s139.6-153.6,279.2-153.6s139.6,153.6,279.2,153.6
			s139.6-153.6,279.2-153.6s139.6,153.6,279.2,153.6s139.6-153.6,279.2-153.6s139.6,153.6,279.2,153.6V12.9H277.7L278.8,522.1z"/>
		<path class="st20" d="M272.4,515.5c139.6,0,139.6,153.6,279.2,153.6s139.6-153.6,279.2-153.6S970.4,669.1,1110,669.1
			s139.6-153.6,279.2-153.6s139.6,153.6,279.2,153.6s139.6-153.6,279.2-153.6s139.6,153.6,279.2,153.6V6.3H271.4L272.4,515.5z"/>
		<path class="st34" d="M264.1-0.3l1,509.2c139.6,0,140.6,153.6,280.2,153.6c134.2,0,140.1-142.3,265.5-152V-0.3H264.1z"/>
	</g>
	<g class="st2">
		<path class="st21" d="M290.3,534.5c139.6,0,139.6,153.6,279.2,153.6s139.6-153.6,279.2-153.6S988.4,688.1,1128,688.1
			s139.6-153.6,279.2-153.6s139.6,153.6,279.2,153.6s139.6-153.6,279.2-153.6s139.6,153.6,279.2,153.6V25.3H289.3L290.3,534.5z"/>
		<path class="st22" d="M284,527.9c139.6,0,139.6,153.6,279.2,153.6s139.6-153.6,279.2-153.6S982,681.5,1121.6,681.5
			s139.6-153.6,279.2-153.6s139.6,153.6,279.2,153.6s139.6-153.6,279.2-153.6s139.6,153.6,279.2,153.6V18.7H283L284,527.9z"/>
		<path class="st23" d="M277.7,521.3c139.6,0,139.6,153.6,279.2,153.6s139.6-153.6,279.2-153.6s139.6,153.6,279.3,153.6
			s139.6-153.6,279.2-153.6s139.6,153.6,279.2,153.6s139.6-153.6,279.2-153.6s139.6,153.6,279.2,153.6V12.1H276.7L277.7,521.3z"/>
		<path class="st24" d="M271.4,514.7c139.6,0,139.6,153.6,279.2,153.6s139.6-153.6,279.2-153.6S969.4,668.3,1109,668.3
			s139.6-153.6,279.2-153.6s139.6,153.6,279.2,153.6s139.6-153.6,279.2-153.6s139.6,153.6,279.2,153.6V5.5H270.3L271.4,514.7z"/>
		<path class="st25" d="M265,508.1c139.6,0,139.6,153.6,279.2,153.6s139.6-153.6,279.2-153.6S963,661.7,1102.6,661.7
			s139.6-153.6,279.2-153.6s139.6,153.6,279.2,153.6s139.6-153.6,279.2-153.6s139.6,153.6,279.2,153.6V-1.1H264L265,508.1z"/>
		<path class="st35" d="M256.7-7.7l1,509.2c139.6,0,140.6,153.6,280.2,153.6c136.9,0,140.3-148,272.9-152.8v-510L256.7-7.7
			L256.7-7.7z"/>
	</g>
	<g class="st2">
		<g class="st4">
			<path class="st26" d="M283,527.1c139.6,0,139.6,153.6,279.2,153.6s139.6-153.6,279.2-153.6s139.7,153.6,279.3,153.6
				s139.6-153.6,279.2-153.6s139.6,153.6,279.2,153.6s139.6-153.6,279.2-153.6s139.6,153.6,279.2,153.6V17.9H282L283,527.1z"/>
		</g>
		<g class="st4">
			<path class="st27" d="M276.7,520.5c139.6,0,139.6,153.6,279.2,153.6s139.6-153.6,279.2-153.6s139.6,153.6,279.2,153.6
				s139.6-153.6,279.2-153.6s139.6,153.6,279.2,153.6s139.6-153.6,279.2-153.6s139.6,153.6,279.2,153.6V11.3H275.7L276.7,520.5z"/>
		</g>
		<g class="st4">
			<path class="st28" d="M270.4,513.9c139.6,0,139.6,153.6,279.2,153.6s139.6-153.6,279.2-153.6s139.6,153.6,279.3,153.6
				s139.6-153.6,279.2-153.6s139.6,153.6,279.2,153.6s139.6-153.6,279.2-153.6s139.6,153.6,279.2,153.6V4.7H269.4L270.4,513.9z"/>
		</g>
		<g class="st4">
			<path class="st29" d="M264.1,507.3c139.6,0,139.6,153.6,279.2,153.6s139.6-153.6,279.2-153.6s139.6,153.6,279.2,153.6
				s139.6-153.6,279.2-153.6s139.6,153.6,279.2,153.6s139.6-153.6,279.2-153.6s139.6,153.6,279.2,153.6V-1.9H263L264.1,507.3z"/>
		</g>
		<g class="st4">
			<path class="st30" d="M257.7,500.7c139.6,0,139.6,153.6,279.2,153.6s139.6-153.6,279.2-153.6s139.6,153.6,279.2,153.6
				s139.6-153.6,279.2-153.6s139.6,153.6,279.2,153.6s139.6-153.6,279.2-153.6s139.6,153.6,279.2,153.6V-8.5H256.7L257.7,500.7z"/>
		</g>
		<g>
			<path class="st36" d="M249.4-15.1l1,509.2c139.6,0,140.6,153.6,280.2,153.6s140.6-153.6,280.2-153.6V-15.1H249.4z"/>
		</g>
	</g>
</g>
<path class="st31" d="M1.9,0L0,484.5c139.7,0,140.7,153.6,280.5,153.6c139.1,0,140.7-152.3,278.6-153.6h0.8V0H1.9z"/>
<path class="st32" d="M1.9,0L0,477.3c132.5,5.3,135.9,153.4,273.1,153.4c139.7,0,140.7-153.6,280.5-153.6V477c2.1,0,4.2,0.1,6.3,0.2
	V0H1.9z"/>
<path class="st33" d="M1.8,0L0,470.4c125.2,10.4,131.1,153,265.7,153c139.7,0,139.7-153.6,279.5-153.6v-0.1c4.7,0,10.3,0.3,14.7,0.6
	V0H1.8z"/>
<path class="st34" d="M1.8,0L0,463.9c116.2,16.5,125.2,152,256.4,152c139.6,0,141.7-153.2,281-153.6c7.6,0,15.7,0.5,22.5,1.4V0H1.8z
	"/>
<path class="st35" d="M1.8,0L0,457.6c111.1,19.9,121.9,151.1,251,151.1c139.7,0,139.7-153.6,279.5-153.6V455
	c10.2,0.1,20.6,0.9,29.4,2.5V0H1.8z"/>
<path class="st37" d="M0,0v451.5c105.2,23.6,118,149.8,244.7,149.8c139.7,0,139.7-153.6,279.5-153.6v-0.1
	c12.7,0.1,25.2,1.4,35.7,3.8V0H0z"/>
</svg>
